# xmcd
#
# Track frame offsets:
#	150
#	653
#	17371
#	37886
#	57758
#	72745
#	92883
#	107585
#	130070
#	147825
#	162130
#	181778
#	199533
#	214340
#	234840
#	249878
#
# Disc length: 3539 seconds
#
# Revision: 0
# Processed by: cddbd v1.4PL0 Copyright (c) Steve Scherf et al.
# Submitted via: dBpowerAMP V4.0
#
DISCID=c60dd110
DTITLE=許志安 - 爛泥 AVCD
DYEAR=2002
DGENRE=Pop
TTITLE0=DATA
TTITLE1=DATA
TTITLE2=DATA
TTITLE3=DATA
TTITLE4=爛泥
TTITLE5=昨遲人
TTITLE6=少女藏刀
TTITLE7=及時趕到
TTITLE8=忘了你是誰
TTITLE9=應該怎反應
TTITLE10=讓愛
TTITLE11=妳看不起
TTITLE12=阿拉丁神燈
TTITLE13=我怕我會愛上你
TTITLE14=孤獨探戈（Live Version）
TTITLE15=爛泥（Bel Canto Remix）
EXTD=
EXTT0=
EXTT1=
EXTT2=
EXTT3=
EXTT4=
EXTT5=
EXTT6=
EXTT7=
EXTT8=
EXTT9=
EXTT10=
EXTT11=
EXTT12=
EXTT13=
EXTT14=
EXTT15=
PLAYORDER=
